<?xml version="1.0" encoding="UTF-8"?>
<svg version="1.1" xmlns="http://www.w3.org/2000/svg" width="64" height="64">
<path d="M0 0 C1.25550659 -0.00477356 1.25550659 -0.00477356 2.53637695 -0.00964355 C3.48746338 -0.0222522 4.4385498 -0.03486084 5.41845703 -0.04785156 C6.44350342 -0.03975464 7.4685498 -0.03165771 8.5246582 -0.02331543 C9.5787085 -0.02714233 10.63275879 -0.03096924 11.71875 -0.03491211 C13.94800776 -0.03763494 16.17729726 -0.03024791 18.40649414 -0.0135498 C21.82420897 0.00785348 25.23982147 -0.01334006 28.6574707 -0.03894043 C30.82153786 -0.03629722 32.9856037 -0.03117239 35.1496582 -0.02331543 C36.17470459 -0.03141235 37.19975098 -0.03950928 38.25585938 -0.04785156 C39.68248901 -0.0289386 39.68248901 -0.0289386 41.13793945 -0.00964355 C41.97494385 -0.00646118 42.81194824 -0.00327881 43.67431641 0 C45.8371582 0.50793457 45.8371582 0.50793457 47.6065979 2.30259705 C49.49464954 5.68625174 49.26501025 9.11224222 49.2355957 12.88684082 C49.23846588 13.69531967 49.24133606 14.50379852 49.24429321 15.33677673 C49.24633091 17.04219261 49.24082162 18.74763201 49.22827148 20.45300293 C49.21219201 23.06494243 49.22814009 25.67533952 49.24731445 28.28723145 C49.24533238 29.94543799 49.24148944 31.60364357 49.2355957 33.26184082 C49.24470474 34.43378746 49.24470474 34.43378746 49.2539978 35.62940979 C49.18383918 41.02777587 49.18383918 41.02777587 47.6065979 43.21228027 C45.32062566 44.88616029 43.95772419 44.89378519 41.13793945 44.9119873 C40.18685303 44.92467148 39.2357666 44.93735565 38.25585938 44.95042419 C37.23081299 44.94748856 36.2057666 44.94455292 35.1496582 44.94152832 C33.56858276 44.9493911 33.56858276 44.9493911 31.95556641 44.95741272 C29.72632733 44.96383814 27.49705436 44.96248924 25.26782227 44.95397949 C21.85021861 44.9454671 18.43428423 44.9742291 15.0168457 45.00598145 C12.85278371 45.0075934 10.68871874 45.00701604 8.5246582 45.00402832 C7.49961182 45.0152623 6.47456543 45.02649628 5.41845703 45.03807068 C4.46737061 45.02868973 3.51628418 45.01930878 2.53637695 45.00964355 C1.69937256 45.00947739 0.86236816 45.00931122 0 45.00914001 C-2.1628418 44.50793457 -2.1628418 44.50793457 -3.93228149 42.70753479 C-5.78742142 39.39151185 -5.59107531 36.08376702 -5.5612793 32.38293457 C-5.56414948 31.59902344 -5.56701965 30.8151123 -5.56997681 30.00744629 C-5.57201443 28.35330481 -5.56650561 26.69913907 -5.55395508 25.04504395 C-5.5378962 22.51649986 -5.55381297 19.98955408 -5.57299805 17.46105957 C-5.57101556 15.85168105 -5.56717177 14.24230352 -5.5612793 12.63293457 C-5.56735199 11.87867188 -5.57342468 11.12440918 -5.5796814 10.34729004 C-5.51668955 5.63423861 -5.21403748 1.22449543 0 0 Z M2.8371582 13.50793457 C5.39070094 19.43580165 10.59474396 23.11763774 15.9621582 26.44543457 C19.43542851 27.72903447 21.15561338 28.14512502 24.8371582 27.50793457 C31.15764157 24.5026067 36.16189718 20.67532833 40.8371582 15.50793457 C40.3421582 14.51793457 40.3421582 14.51793457 39.8371582 13.50793457 C38.96704102 14.32197754 38.96704102 14.32197754 38.0793457 15.15246582 C27.52698109 24.81676015 27.52698109 24.81676015 20.5871582 24.69543457 C14.39713708 23.7931603 10.3667438 19.5060706 5.8371582 15.50793457 C4.8471582 14.84793457 3.8571582 14.18793457 2.8371582 13.50793457 Z " fill="#000000" transform="translate(10.162841796875,9.4920654296875)"/>
</svg>
