<?xml version="1.0" encoding="UTF-8"?>
<svg version="1.1" xmlns="http://www.w3.org/2000/svg" width="80" height="80">
<path d="M0 0 C0.81694336 -0.0038269 1.63388672 -0.00765381 2.47558594 -0.01159668 C4.193372 -0.01430431 5.91120011 -0.00702398 7.62890625 0.00976562 C10.24313151 0.0311937 12.85460918 0.00992675 15.46875 -0.015625 C17.14583934 -0.01298152 18.82292698 -0.00785611 20.5 0 C21.65967285 -0.01214539 21.65967285 -0.01214539 22.84277344 -0.02453613 C28.13699463 0.06595596 32.16757277 1.02004012 36.25 4.53125 C40.36809652 9.31929456 40.84530333 14.16527201 40.78125 20.28125 C40.7850769 21.09819336 40.78890381 21.91513672 40.79284668 22.75683594 C40.79555431 24.474622 40.78827398 26.19245011 40.77148438 27.91015625 C40.7500563 30.52438151 40.77132325 33.13585918 40.796875 35.75 C40.79423152 37.42708934 40.78910611 39.10417698 40.78125 40.78125 C40.78934692 41.55436523 40.79744385 42.32748047 40.80578613 43.12402344 C40.71529404 48.41824463 39.76120988 52.44882277 36.25 56.53125 C31.46195544 60.64934652 26.61597799 61.12655333 20.5 61.0625 C19.68305664 61.0663269 18.86611328 61.07015381 18.02441406 61.07409668 C16.306628 61.07680431 14.58879989 61.06952398 12.87109375 61.05273438 C10.25686849 61.0313063 7.64539082 61.05257325 5.03125 61.078125 C3.35416066 61.07548152 1.67707302 61.07035611 0 61.0625 C-0.77311523 61.07059692 -1.54623047 61.07869385 -2.34277344 61.08703613 C-7.63699463 60.99654404 -11.66757277 60.04245988 -15.75 56.53125 C-19.86809652 51.74320544 -20.34530333 46.89722799 -20.28125 40.78125 C-20.2850769 39.96430664 -20.28890381 39.14736328 -20.29284668 38.30566406 C-20.29555431 36.587878 -20.28827398 34.87004989 -20.27148438 33.15234375 C-20.2500563 30.53811849 -20.27132325 27.92664082 -20.296875 25.3125 C-20.29423152 23.63541066 -20.28910611 21.95832302 -20.28125 20.28125 C-20.28934692 19.50813477 -20.29744385 18.73501953 -20.30578613 17.93847656 C-20.21529404 12.64425537 -19.26120988 8.61367723 -15.75 4.53125 C-10.96195544 0.41315348 -6.11597799 -0.06405333 0 0 Z M-14.1875 7.78125 C-18.30705455 15.03166601 -18.08552899 22.25398636 -18.0625 30.40625 C-18.07861328 31.53933594 -18.09472656 32.67242187 -18.11132812 33.83984375 C-18.11576798 41.50303532 -17.92162068 49.09532759 -12.5 54.96875 C-5.24958399 59.08830455 1.97273636 58.86677899 10.125 58.84375 C11.25808594 58.85986328 12.39117187 58.87597656 13.55859375 58.89257812 C21.22178532 58.89701798 28.81407759 58.70287068 34.6875 53.28125 C38.80705455 46.03083399 38.58552899 38.80851364 38.5625 30.65625 C38.57861328 29.52316406 38.59472656 28.39007813 38.61132812 27.22265625 C38.61576798 19.55946468 38.42162068 11.96717241 33 6.09375 C25.74958399 1.97419545 18.52726364 2.19572101 10.375 2.21875 C9.24191406 2.20263672 8.10882813 2.18652344 6.94140625 2.16992188 C-0.72178532 2.16548202 -8.31407759 2.35962932 -14.1875 7.78125 Z " fill="#FFFFFF" transform="translate(29.75,8.46875)"/>
<path d="M0 0 C5.01791684 2.41935276 8.49958655 5.9991731 11 11 C11.5072965 16.55531248 11.76260422 21.41830236 9.3125 26.5 C2.59412173 33.76311164 2.59412173 33.76311164 -2.609375 34.23828125 C-13.14881343 34.48734758 -13.14881343 34.48734758 -18 30 C-22.83106777 24.51608524 -23.35024743 21.19460601 -23.28125 13.984375 C-22.77938024 8.65897925 -20.24614624 6.0977955 -16.375 2.6875 C-11.25527798 -0.95019722 -6.13002394 -0.57769859 0 0 Z M-18.875 9.125 C-20.56484251 13.44348642 -20.65960983 17.4267052 -20 22 C-17.83701163 26.40608743 -15.60319521 29.1987497 -11 31 C-5.95674616 31.68426057 -2.16923116 31.5739862 2.4375 29.3125 C5.79656012 26.28115306 7.69355631 24.25860352 8.31640625 19.66796875 C8.58213652 13.95048191 7.96847152 10.39749547 4 6 C0.16286804 2.61429533 -3.63401462 2.48708828 -8.5625 2.6484375 C-13.22526146 3.32095117 -15.85190292 5.69882331 -18.875 9.125 Z " fill="#FFFFFF" transform="translate(46,22)"/>
<path d="M0 0 C1.65 0.33 3.3 0.66 5 1 C4.67 2.65 4.34 4.3 4 6 C2.35 5.67 0.7 5.34 -1 5 C-0.67 3.35 -0.34 1.7 0 0 Z " fill="#FFFFFF" transform="translate(56,19)"/>
<path d="M0 0 C0.99 0 1.98 0 3 0 C2.67 0.99 2.34 1.98 2 3 C1.34 3 0.68 3 0 3 C0 2.01 0 1.02 0 0 Z " fill="#FFFFFF" transform="translate(43,48)"/>
<path d="M0 0 C0.99 0 1.98 0 3 0 C3 0.99 3 1.98 3 3 C2.01 2.67 1.02 2.34 0 2 C0 1.34 0 0.68 0 0 Z " fill="#FFFFFF" transform="translate(34,48)"/>
<path d="M0 0 C0.66 0 1.32 0 2 0 C2 0.99 2 1.98 2 3 C1.01 3 0.02 3 -1 3 C-0.67 2.01 -0.34 1.02 0 0 Z " fill="#FFFFFF" transform="translate(47,45)"/>
<path d="M0 0 C0.99 0.33 1.98 0.66 3 1 C3 1.66 3 2.32 3 3 C2.01 3 1.02 3 0 3 C0 2.01 0 1.02 0 0 Z " fill="#FFFFFF" transform="translate(31,45)"/>
<path d="M0 0 C0.99 0 1.98 0 3 0 C2.67 0.99 2.34 1.98 2 3 C1.34 3 0.68 3 0 3 C0 2.01 0 1.02 0 0 Z " fill="#FFFFFF" transform="translate(49,42)"/>
<path d="M0 0 C0.99 0 1.98 0 3 0 C3 0.99 3 1.98 3 3 C2.01 2.67 1.02 2.34 0 2 C0 1.34 0 0.68 0 0 Z " fill="#FFFFFF" transform="translate(28,42)"/>
<path d="M0 0 C0.99 0.33 1.98 0.66 3 1 C3 1.66 3 2.32 3 3 C2.01 3 1.02 3 0 3 C0 2.01 0 1.02 0 0 Z " fill="#FFFFFF" transform="translate(49,33)"/>
<path d="M0 0 C0.66 0 1.32 0 2 0 C2 0.99 2 1.98 2 3 C1.01 3 0.02 3 -1 3 C-0.67 2.01 -0.34 1.02 0 0 Z " fill="#FFFFFF" transform="translate(29,33)"/>
<path d="M0 0 C0.99 0 1.98 0 3 0 C3 0.99 3 1.98 3 3 C2.01 2.67 1.02 2.34 0 2 C0 1.34 0 0.68 0 0 Z " fill="#FFFFFF" transform="translate(46,30)"/>
<path d="M0 0 C0.99 0 1.98 0 3 0 C2.67 0.99 2.34 1.98 2 3 C1.34 3 0.68 3 0 3 C0 2.01 0 1.02 0 0 Z " fill="#FFFFFF" transform="translate(31,30)"/>
<path d="M0 0 C0.99 0.33 1.98 0.66 3 1 C3 1.66 3 2.32 3 3 C2.01 3 1.02 3 0 3 C0 2.01 0 1.02 0 0 Z " fill="#FFFFFF" transform="translate(43,27)"/>
<path d="M0 0 C0.66 0 1.32 0 2 0 C2 0.99 2 1.98 2 3 C1.01 3 0.02 3 -1 3 C-0.67 2.01 -0.34 1.02 0 0 Z " fill="#FFFFFF" transform="translate(35,27)"/>
<path d="M0 0 C0.66 0 1.32 0 2 0 C2 0.66 2 1.32 2 2 C1.34 2 0.68 2 0 2 C0 1.34 0 0.68 0 0 Z " fill="#FFFFFF" transform="translate(39,49)"/>
<path d="M0 0 C0.66 0 1.32 0 2 0 C2 0.66 2 1.32 2 2 C1.34 2 0.68 2 0 2 C0 1.34 0 0.68 0 0 Z " fill="#FFFFFF" transform="translate(50,38)"/>
<path d="M0 0 C0.66 0 1.32 0 2 0 C2 0.66 2 1.32 2 2 C1.34 2 0.68 2 0 2 C0 1.34 0 0.68 0 0 Z " fill="#FFFFFF" transform="translate(28,38)"/>
<path d="M0 0 C0.66 0 1.32 0 2 0 C2 0.66 2 1.32 2 2 C1.34 2 0.68 2 0 2 C0 1.34 0 0.68 0 0 Z " fill="#FFFFFF" transform="translate(39,27)"/>
</svg>
