<?xml version="1.0" encoding="UTF-8"?>
<svg version="1.1" xmlns="http://www.w3.org/2000/svg" width="566" height="800">
<path d="M0 0 C0.57186035 0.42071777 1.1437207 0.84143555 1.73291016 1.27490234 C15.28823892 11.30848505 27.74558258 22.57568818 38 36 C38.78503906 36.95777344 39.57007813 37.91554688 40.37890625 38.90234375 C70.98208949 76.88094205 83.97676148 127.25205169 79.3125 175.4375 C74.05884701 222.12348303 51.65043208 268.89880341 15.1328125 299.3046875 C14.42898438 299.86414063 13.72515625 300.42359375 13 301 C12.04867188 301.76570313 11.09734375 302.53140625 10.1171875 303.3203125 C-30.4538898 335.52274767 -80.88448329 350.5050016 -132.45800781 344.97998047 C-175.27155236 339.88312993 -212.95678687 321.73324437 -244 292 C-244.50418457 291.52304687 -245.00836914 291.04609375 -245.52783203 290.5546875 C-253.18677968 283.28221166 -259.89887336 275.6335803 -266 267 C-266.43135254 266.39655762 -266.86270508 265.79311523 -267.30712891 265.17138672 C-287.27826258 236.88806159 -300.87857169 201.44841232 -301.23828125 166.53125 C-301.2480751 165.74168411 -301.25786896 164.95211823 -301.26795959 164.1386261 C-301.51610943 138.93064826 -299.28925255 115.96814886 -291 92 C-290.57203125 90.75734375 -290.1440625 89.5146875 -289.703125 88.234375 C-283.27218328 71.05997771 -274.42309837 54.36459131 -263 40 C-262.58991699 39.47857422 -262.17983398 38.95714844 -261.75732422 38.41992188 C-246.25042324 18.84868796 -227.73133538 2.34614796 -206 -10 C-204.87851563 -10.65355469 -203.75703125 -11.30710938 -202.6015625 -11.98046875 C-141.0109241 -46.99478904 -56.88979603 -42.58817136 0 0 Z " fill="#EBEBEB" transform="translate(389,221)"/>
<path d="M0 0 C33.38643807 0.63648322 68.44114068 14.11781847 95 34 C95.57186035 34.42071777 96.1437207 34.84143555 96.73291016 35.27490234 C110.28823892 45.30848505 122.74558258 56.57568818 133 70 C133.78503906 70.95777344 134.57007813 71.91554688 135.37890625 72.90234375 C165.98208949 110.88094205 178.97676148 161.25205169 174.3125 209.4375 C169.05884701 256.12348303 146.65043208 302.89880341 110.1328125 333.3046875 C109.42898438 333.86414063 108.72515625 334.42359375 108 335 C107.04867187 335.76570313 106.09734375 336.53140625 105.1171875 337.3203125 C73.02116216 362.79585429 34.9956449 377.64785923 -6 380 C-7.1744165 380.07589355 -7.1744165 380.07589355 -8.37255859 380.15332031 C-34.078943 381.63320742 -59.22927538 373.00233169 -78.64428711 356.07861328 C-94.28559207 341.97892088 -103.80489156 325.25655729 -109 305 C-109.24492187 304.071875 -109.48984375 303.14375 -109.7421875 302.1875 C-115.21889756 277.57981646 -108.09728862 251.93222146 -95 231 C-92.22003986 227.10904336 -89.22036047 223.53182884 -86 220 C-84.98873047 218.84951172 -84.98873047 218.84951172 -83.95703125 217.67578125 C-69.35831945 201.98148133 -46.37142974 190.66553026 -24.890625 189.7890625 C-24.14498291 189.76287842 -23.39934082 189.73669434 -22.63110352 189.7097168 C2.55472714 188.81363526 26.73858181 183.10191018 46 166 C46.68191406 165.45988281 47.36382812 164.91976562 48.06640625 164.36328125 C54.15854199 159.43950031 58.55911213 153.40910261 63 147 C63.55816406 146.19691406 64.11632812 145.39382813 64.69140625 144.56640625 C69.41529635 137.25239365 72.32500126 129.23916086 75 121 C75.51626953 119.42025391 75.51626953 119.42025391 76.04296875 117.80859375 C82.43134996 93.84466613 78.24325505 68.01960069 66.04394531 46.74121094 C63.34031031 42.23178044 60.3139978 38.07583637 57 34 C56.34773437 33.17242187 55.69546875 32.34484375 55.0234375 31.4921875 C40.56139484 14.21356725 21.29620366 6.29355807 0 1 C0 0.67 0 0.34 0 0 Z " fill="#000000" transform="translate(294,187)"/>
<path d="M0 0 C7.51480168 4.51488085 10.96444162 9.89017595 13.95703125 18.17578125 C15.77839863 26.89405976 12.70335556 33.90899506 7.95703125 41.17578125 C3.59117587 46.49178147 -3.22874645 49.61986221 -9.9375 50.59765625 C-17.33923884 50.9397135 -23.01811191 49.54279157 -29.04296875 45.17578125 C-34.97045534 39.76545792 -38.56487068 34.9678805 -39.37890625 26.80859375 C-39.48624242 17.16980577 -38.31776506 11.56436438 -31.85546875 4.42578125 C-22.91848605 -3.84850147 -10.92554013 -5.72852645 0 0 Z " fill="#E9E9E9" transform="translate(291.04296875,447.82421875)"/>
<path d="M0 0 C7.47291795 4.57184615 10.92545788 9.87957875 13.921875 18.17578125 C15.51358294 25.79475659 13.45143176 31.8016511 9.76171875 38.50390625 C7.04597786 42.44778474 4.0701341 44.85308214 -0.078125 47.17578125 C-1.686875 48.10390625 -1.686875 48.10390625 -3.328125 49.05078125 C-10.54107701 51.21466685 -17.45448126 51.30550464 -24.390625 48.17578125 C-31.31580376 44.2455753 -36.02924619 38.49487336 -39.078125 31.17578125 C-40.06017692 23.05394644 -40.27037193 14.85371536 -35.078125 8.17578125 C-26.11508505 -2.80677909 -13.17002799 -6.99357326 0 0 Z " fill="#020202" transform="translate(291.078125,257.82421875)"/>
</svg>
